<?xml version="1.0" standalone="no"?>
<!DOCTYPE svg PUBLIC "-//W3C//DTD SVG 20010904//EN"
 "http://www.w3.org/TR/2001/REC-SVG-20010904/DTD/svg10.dtd">
<svg version="1.0" xmlns="http://www.w3.org/2000/svg"
 width="571.000000pt" height="571.000000pt" viewBox="0 0 571.000000 571.000000"
 preserveAspectRatio="xMidYMid meet">
<metadata>
Created by potrace 1.14, written by Peter Selinger 2001-2017
</metadata>
<g transform="translate(0.000000,571.000000) scale(0.100000,-0.100000)"
fill="#000000" stroke="none">
<path d="M0 3088 l0 -2623 1730 1730 c951 951 1730 1731 1730 1731 0 1 -372
361 -827 800 -456 440 -871 840 -923 891 l-95 93 -807 0 -808 0 0 -2622z"/>
<path d="M2690 5608 c58 -55 166 -160 240 -232 74 -72 263 -255 420 -406 157
-151 349 -338 428 -415 78 -77 148 -141 155 -143 6 -1 304 290 662 648 l650
650 -1330 0 -1330 -1 105 -101z"/>
<path d="M5068 4583 c-351 -351 -638 -643 -638 -649 0 -6 28 -37 63 -69 34
-31 125 -118 202 -193 77 -76 208 -202 290 -281 237 -228 439 -424 582 -565
73 -71 135 -127 138 -124 3 2 4 570 3 1261 l-3 1257 -637 -637z"/>
<path d="M2215 1730 l-1730 -1730 2613 0 2612 0 0 879 0 878 -82 78 c-46 43
-148 141 -228 219 -80 77 -206 199 -280 271 -74 72 -205 198 -290 280 -85 83
-279 269 -430 415 -151 146 -316 304 -365 352 l-91 87 -1729 -1729z"/>
</g>
</svg>
