<?xml version="1.0" standalone="no"?>
<!DOCTYPE svg PUBLIC "-//W3C//DTD SVG 20010904//EN"
 "http://www.w3.org/TR/2001/REC-SVG-20010904/DTD/svg10.dtd">
<svg version="1.0" xmlns="http://www.w3.org/2000/svg"
 width="571.000000pt" height="571.000000pt" viewBox="0 0 571.000000 571.000000"
 preserveAspectRatio="xMidYMid meet">
<metadata>
Created by potrace 1.14, written by Peter Selinger 2001-2017
</metadata>
<g transform="translate(0.000000,571.000000) scale(0.100000,-0.100000)"
fill="#000000" stroke="none">
<path d="M0 3088 l0 -2623 1730 1730 1730 1730 -53 52 c-28 29 -443 430 -922
892 l-870 840 -807 1 -808 0 0 -2622z"/>
<path d="M2665 5633 c44 -42 148 -142 230 -222 83 -80 272 -263 420 -406 149
-143 338 -326 420 -407 83 -80 163 -156 178 -169 l29 -22 651 651 652 652
-1330 0 -1330 -1 80 -76z"/>
<path d="M5068 4583 c-351 -351 -638 -643 -638 -649 0 -7 19 -28 43 -49 23
-20 105 -98 182 -173 160 -156 486 -471 890 -862 l160 -154 3 632 c1 348 1
916 0 1262 l-3 630 -637 -637z"/>
<path d="M2210 1725 l-1725 -1725 2613 0 2612 0 0 878 0 877 -876 845 c-481
465 -881 846 -887 848 -7 1 -788 -774 -1737 -1723z"/>
</g>
</svg>
